<svg width="108" height="34" viewBox="0 0 108 34" fill="none" xmlns="http://www.w3.org/2000/svg">
<path d="M30.9293 11.7789C31.863 8.84243 31.3013 2.98431 29.4922 0.821596C29.2552 0.537901 28.8138 0.578429 28.6169 0.891599L26.3884 4.42489C25.8376 5.13229 24.8456 5.2944 24.0979 4.80069C21.6797 3.20169 18.791 2.27323 15.6872 2.27323C12.5833 2.27323 9.69467 3.20169 7.27651 4.80069C6.53246 5.2944 5.54039 5.1286 4.986 4.42489L2.7575 0.891599C2.56054 0.578429 2.11922 0.541586 1.88214 0.821596C0.0730804 2.98799 -0.488604 8.84611 0.445105 11.7789C0.755126 12.7552 0.839014 13.7868 0.656649 14.789C0.474284 15.7837 0.291919 16.9848 0.291919 17.8212C0.291919 26.4094 7.18532 33.3691 15.6835 33.3691C24.1854 33.3691 31.0752 26.4057 31.0752 17.8212C31.0752 16.9848 30.8928 15.7837 30.7104 14.789C30.5317 13.7868 30.6193 12.7552 30.9293 11.7789ZM15.6835 29.8985C9.1111 29.8985 3.7678 24.4972 3.7678 17.858C3.7678 17.6407 3.77509 17.427 3.78604 17.2133C4.02311 12.6889 6.744 8.824 10.5919 6.98183C12.1347 6.23759 13.8635 5.82494 15.6872 5.82494C17.5108 5.82494 19.236 6.23759 20.7825 6.98551C24.6304 8.82769 27.3513 12.6963 27.5883 17.217C27.5993 17.4306 27.6066 17.648 27.6066 17.8617C27.6029 24.4972 22.256 29.8985 15.6835 29.8985Z" fill="#3970FD"/>
<path d="M20.8478 22.4931L17.8023 17.1582L15.1908 12.7112C15.1288 12.6044 15.0157 12.5417 14.8954 12.5417H12.4006C12.2766 12.5417 12.1635 12.608 12.1015 12.7186C12.0395 12.8254 12.0432 12.958 12.1052 13.0649L14.6036 17.3056L11.2517 22.471C11.1824 22.5779 11.1788 22.7142 11.2371 22.8247C11.2955 22.9353 11.4122 23.0053 11.5398 23.0053H14.0528C14.1695 23.0053 14.279 22.9463 14.341 22.8468L16.1537 19.9878L17.7804 22.8358C17.8424 22.9426 17.9554 23.009 18.0758 23.009H20.5523C20.6763 23.009 20.7894 22.9426 20.8478 22.8358C20.9098 22.7326 20.9098 22.6 20.8478 22.4931Z" fill="#3970FD"/>
<path d="M44.2925 8.81598H47.4754V26.2728H44.2925V18.8346H40.6966V26.2765H37.5137V8.81598H40.6966V16.3967H44.2925V8.81598Z" fill="#000615"/>
<path d="M57.2947 26.276L56.6296 22.6501H52.8108L52.2005 26.276H49.0176L52.5294 8.81918H56.816L60.4959 26.276H57.2947ZM53.2274 20.2414H56.1874L54.6672 11.8858L53.2274 20.2414Z" fill="#000615"/>
<path d="M67.5859 23.0924V19.3569C67.5859 19.0608 67.5311 18.8634 67.4215 18.7611C67.3119 18.6587 67.1072 18.6076 66.8112 18.6076H64.5711C62.6708 18.6076 61.7207 17.6865 61.7207 15.8407V11.5569C61.7207 9.72931 62.7147 8.81918 64.7063 8.81918H67.7504C69.742 8.81918 70.736 9.73296 70.736 11.5569V13.9912H67.5275V11.9991C67.5275 11.7031 67.4727 11.5057 67.363 11.4033C67.2534 11.301 67.0487 11.2498 66.7527 11.2498H65.7003C65.386 11.2498 65.1741 11.301 65.0644 11.4033C64.9548 11.5057 64.9 11.7031 64.9 11.9991V15.5117C64.9 15.8078 64.9548 16.0051 65.0644 16.1075C65.1741 16.2098 65.386 16.261 65.7003 16.261H67.8856C69.8224 16.261 70.7908 17.1638 70.7908 18.9731V23.5383C70.7908 25.3659 69.7859 26.276 67.776 26.276H64.7867C62.7768 26.276 61.7719 25.3622 61.7719 23.5383V21.1296H64.9511V23.0924C64.9511 23.3885 65.006 23.5858 65.1156 23.6882C65.2252 23.7905 65.4372 23.8417 65.7515 23.8417H66.8039C67.0999 23.8417 67.3009 23.7905 67.4142 23.6882C67.5275 23.5858 67.5859 23.3885 67.5859 23.0924Z" fill="#000615"/>
<path d="M79.2829 8.81512H82.4622V23.5343C82.4622 25.3618 81.4573 26.2719 79.4474 26.2719H76.0744C74.0645 26.2719 73.0596 25.3582 73.0596 23.5343V8.81512H76.2425V23.092C76.2425 23.3881 76.2973 23.5854 76.407 23.6878C76.5166 23.7901 76.7212 23.8413 77.0172 23.8413H78.4826C78.7969 23.8413 79.0088 23.7901 79.1185 23.6878C79.2281 23.5854 79.2829 23.3881 79.2829 23.092V8.81512Z" fill="#000615"/>
<path d="M88.273 19.4698V26.2756H85.0938V8.81512H91.5108C93.5207 8.81512 94.5256 9.7289 94.5256 11.5528V16.7284C94.5256 18.2417 93.8532 19.1262 92.5048 19.3857L95.41 26.2756H91.9785L89.3218 19.4698H88.273ZM88.273 11.2494V17.1159H90.568C90.864 17.1159 91.065 17.0647 91.1782 16.9624C91.2879 16.86 91.3427 16.6627 91.3427 16.3666V11.9987C91.3427 11.7027 91.2879 11.5053 91.1782 11.4029C91.0686 11.3006 90.864 11.2494 90.568 11.2494H88.273Z" fill="#000615"/>
<path d="M104.151 26.276L103.486 22.6501H99.6675L99.0572 26.276H95.8779L99.3898 8.81918H103.676L107.356 26.276H104.151ZM100.088 20.2414H103.048L101.528 11.8858L100.088 20.2414Z" fill="#000615"/>
</svg>
