<svg width="910" height="434" viewBox="0 0 910 434" fill="none" xmlns="http://www.w3.org/2000/svg">
<path d="M0.5 12C0.5 5.64872 5.64873 0.5 12 0.5H898C904.351 0.5 909.5 5.64873 909.5 12V422C909.5 428.351 904.351 433.5 898 433.5H12C5.64873 433.5 0.5 428.351 0.5 422V12Z" stroke="#D2D6DB"/>
<path d="M461.999 207H463.01C463.981 207 464.466 207 464.734 206.798C464.967 206.621 465.111 206.351 465.129 206.06C465.149 205.725 464.88 205.321 464.341 204.512L461.33 199.997C460.885 199.329 460.663 198.995 460.382 198.879C460.137 198.777 459.861 198.777 459.616 198.879C459.336 198.995 459.113 199.329 458.668 199.997L457.924 201.113M461.999 207L454.315 195.9C453.873 195.262 453.652 194.943 453.376 194.83C453.134 194.732 452.864 194.732 452.623 194.83C452.347 194.943 452.126 195.262 451.684 195.9L445.737 204.489C445.174 205.303 444.893 205.709 444.909 206.047C444.923 206.342 445.066 206.615 445.3 206.794C445.569 207 446.064 207 447.053 207H461.999ZM463.999 192C463.999 193.657 462.656 195 460.999 195C459.342 195 457.999 193.657 457.999 192C457.999 190.343 459.342 189 460.999 189C462.656 189 463.999 190.343 463.999 192Z" stroke="#1F2A37" stroke-width="1.5" stroke-linecap="round" stroke-linejoin="round"/>
<path d="M346.083 230.273V239H345.026V230.273H346.083ZM347.825 239V232.455H348.797V233.477H348.882C349.018 233.128 349.239 232.857 349.543 232.663C349.847 232.467 350.212 232.369 350.638 232.369C351.07 232.369 351.429 232.467 351.716 232.663C352.006 232.857 352.232 233.128 352.393 233.477H352.462C352.629 233.139 352.881 232.871 353.216 232.672C353.551 232.47 353.953 232.369 354.422 232.369C355.007 232.369 355.486 232.553 355.858 232.919C356.23 233.283 356.416 233.849 356.416 234.619V239H355.411V234.619C355.411 234.136 355.278 233.791 355.014 233.584C354.75 233.376 354.439 233.273 354.081 233.273C353.621 233.273 353.264 233.412 353.011 233.69C352.759 233.966 352.632 234.315 352.632 234.739V239H351.609V234.517C351.609 234.145 351.489 233.845 351.247 233.618C351.006 233.388 350.695 233.273 350.314 233.273C350.053 233.273 349.808 233.342 349.581 233.482C349.357 233.621 349.175 233.814 349.036 234.061C348.899 234.305 348.831 234.588 348.831 234.909V239H347.825ZM360.657 241.591C360.171 241.591 359.754 241.528 359.404 241.403C359.055 241.281 358.764 241.119 358.531 240.918C358.3 240.719 358.117 240.506 357.981 240.278L358.782 239.716C358.873 239.835 358.988 239.972 359.127 240.125C359.266 240.281 359.457 240.416 359.698 240.53C359.943 240.646 360.262 240.705 360.657 240.705C361.185 240.705 361.622 240.577 361.965 240.321C362.309 240.065 362.481 239.665 362.481 239.119V237.79H362.396C362.322 237.909 362.217 238.057 362.08 238.233C361.947 238.406 361.754 238.561 361.501 238.697C361.251 238.831 360.913 238.898 360.487 238.898C359.958 238.898 359.484 238.773 359.063 238.523C358.646 238.273 358.315 237.909 358.07 237.432C357.829 236.955 357.708 236.375 357.708 235.693C357.708 235.023 357.826 234.439 358.062 233.942C358.298 233.442 358.626 233.055 359.046 232.783C359.467 232.507 359.952 232.369 360.504 232.369C360.93 232.369 361.268 232.44 361.518 232.582C361.771 232.722 361.964 232.881 362.097 233.06C362.234 233.236 362.339 233.381 362.413 233.494H362.515V232.455H363.487V239.188C363.487 239.75 363.359 240.207 363.103 240.56C362.85 240.915 362.509 241.175 362.08 241.339C361.654 241.507 361.18 241.591 360.657 241.591ZM360.623 237.994C361.026 237.994 361.367 237.902 361.646 237.717C361.924 237.533 362.136 237.267 362.281 236.92C362.425 236.574 362.498 236.159 362.498 235.676C362.498 235.205 362.427 234.788 362.285 234.428C362.143 234.067 361.933 233.784 361.654 233.58C361.376 233.375 361.032 233.273 360.623 233.273C360.197 233.273 359.842 233.381 359.558 233.597C359.276 233.812 359.065 234.102 358.923 234.466C358.783 234.83 358.714 235.233 358.714 235.676C358.714 236.131 358.785 236.533 358.927 236.882C359.072 237.229 359.285 237.501 359.566 237.7C359.85 237.896 360.202 237.994 360.623 237.994ZM370.882 239.136C370.291 239.136 369.772 238.996 369.326 238.714C368.883 238.433 368.536 238.04 368.286 237.534C368.039 237.028 367.916 236.437 367.916 235.761C367.916 235.08 368.039 234.484 368.286 233.976C368.536 233.467 368.883 233.072 369.326 232.791C369.772 232.51 370.291 232.369 370.882 232.369C371.472 232.369 371.99 232.51 372.433 232.791C372.879 233.072 373.225 233.467 373.472 233.976C373.722 234.484 373.847 235.08 373.847 235.761C373.847 236.437 373.722 237.028 373.472 237.534C373.225 238.04 372.879 238.433 372.433 238.714C371.99 238.996 371.472 239.136 370.882 239.136ZM370.882 238.233C371.33 238.233 371.7 238.118 371.99 237.888C372.279 237.658 372.494 237.355 372.633 236.98C372.772 236.605 372.842 236.199 372.842 235.761C372.842 235.324 372.772 234.916 372.633 234.538C372.494 234.161 372.279 233.855 371.99 233.622C371.7 233.389 371.33 233.273 370.882 233.273C370.433 233.273 370.063 233.389 369.774 233.622C369.484 233.855 369.269 234.161 369.13 234.538C368.991 234.916 368.921 235.324 368.921 235.761C368.921 236.199 368.991 236.605 369.13 236.98C369.269 237.355 369.484 237.658 369.774 237.888C370.063 238.118 370.433 238.233 370.882 238.233ZM375.143 239V232.455H376.114V233.443H376.182C376.302 233.119 376.518 232.857 376.83 232.655C377.143 232.453 377.495 232.352 377.887 232.352C377.961 232.352 378.053 232.354 378.164 232.357C378.275 232.359 378.359 232.364 378.415 232.369V233.392C378.381 233.384 378.303 233.371 378.181 233.354C378.062 233.334 377.935 233.324 377.802 233.324C377.484 233.324 377.199 233.391 376.949 233.524C376.702 233.655 376.506 233.837 376.361 234.07C376.219 234.3 376.148 234.562 376.148 234.858V239H375.143ZM387.855 232.455L385.434 239H384.412L381.991 232.455H383.082L384.889 237.67H384.957L386.764 232.455H387.855ZM388.942 239V232.455H389.948V239H388.942ZM389.454 231.364C389.258 231.364 389.088 231.297 388.946 231.163C388.807 231.03 388.738 230.869 388.738 230.682C388.738 230.494 388.807 230.334 388.946 230.2C389.088 230.067 389.258 230 389.454 230C389.65 230 389.817 230.067 389.956 230.2C390.098 230.334 390.169 230.494 390.169 230.682C390.169 230.869 390.098 231.03 389.956 231.163C389.817 231.297 389.65 231.364 389.454 231.364ZM394.021 239.136C393.476 239.136 392.994 238.999 392.577 238.723C392.159 238.445 391.833 238.053 391.597 237.547C391.361 237.038 391.243 236.438 391.243 235.744C391.243 235.057 391.361 234.46 391.597 233.955C391.833 233.449 392.161 233.058 392.581 232.783C393.002 232.507 393.487 232.369 394.038 232.369C394.465 232.369 394.801 232.44 395.048 232.582C395.298 232.722 395.489 232.881 395.619 233.06C395.753 233.236 395.857 233.381 395.931 233.494H396.016V230.273H397.021V239H396.05V237.994H395.931C395.857 238.114 395.752 238.264 395.615 238.446C395.479 238.625 395.284 238.786 395.031 238.928C394.779 239.067 394.442 239.136 394.021 239.136ZM394.158 238.233C394.561 238.233 394.902 238.128 395.181 237.918C395.459 237.705 395.671 237.411 395.815 237.036C395.96 236.658 396.033 236.222 396.033 235.727C396.033 235.239 395.962 234.811 395.82 234.445C395.678 234.075 395.467 233.788 395.189 233.584C394.911 233.376 394.567 233.273 394.158 233.273C393.732 233.273 393.377 233.382 393.092 233.601C392.811 233.817 392.6 234.111 392.458 234.483C392.318 234.852 392.249 235.267 392.249 235.727C392.249 236.193 392.32 236.616 392.462 236.997C392.607 237.375 392.82 237.676 393.101 237.901C393.385 238.122 393.737 238.233 394.158 238.233ZM401.507 239.136C400.877 239.136 400.333 238.997 399.875 238.719C399.421 238.438 399.07 238.045 398.823 237.543C398.578 237.037 398.456 236.449 398.456 235.778C398.456 235.108 398.578 234.517 398.823 234.006C399.07 233.491 399.414 233.091 399.854 232.804C400.297 232.514 400.814 232.369 401.405 232.369C401.746 232.369 402.083 232.426 402.415 232.54C402.747 232.653 403.05 232.838 403.323 233.094C403.595 233.347 403.813 233.682 403.975 234.099C404.137 234.517 404.217 235.031 404.217 235.642V236.068H399.172V235.199H403.195C403.195 234.83 403.121 234.5 402.973 234.21C402.828 233.92 402.621 233.692 402.351 233.524C402.084 233.357 401.769 233.273 401.405 233.273C401.004 233.273 400.658 233.372 400.365 233.571C400.075 233.767 399.852 234.023 399.696 234.338C399.54 234.653 399.462 234.991 399.462 235.352V235.932C399.462 236.426 399.547 236.845 399.717 237.189C399.891 237.53 400.131 237.79 400.438 237.969C400.744 238.145 401.101 238.233 401.507 238.233C401.771 238.233 402.01 238.196 402.223 238.122C402.439 238.045 402.625 237.932 402.781 237.781C402.938 237.628 403.058 237.437 403.144 237.21L404.115 237.483C404.013 237.812 403.841 238.102 403.6 238.352C403.358 238.599 403.06 238.793 402.705 238.932C402.35 239.068 401.95 239.136 401.507 239.136ZM408.166 239.136C407.576 239.136 407.057 238.996 406.611 238.714C406.168 238.433 405.821 238.04 405.571 237.534C405.324 237.028 405.201 236.437 405.201 235.761C405.201 235.08 405.324 234.484 405.571 233.976C405.821 233.467 406.168 233.072 406.611 232.791C407.057 232.51 407.576 232.369 408.166 232.369C408.757 232.369 409.274 232.51 409.718 232.791C410.164 233.072 410.51 233.467 410.757 233.976C411.007 234.484 411.132 235.08 411.132 235.761C411.132 236.437 411.007 237.028 410.757 237.534C410.51 238.04 410.164 238.433 409.718 238.714C409.274 238.996 408.757 239.136 408.166 239.136ZM408.166 238.233C408.615 238.233 408.985 238.118 409.274 237.888C409.564 237.658 409.779 237.355 409.918 236.98C410.057 236.605 410.127 236.199 410.127 235.761C410.127 235.324 410.057 234.916 409.918 234.538C409.779 234.161 409.564 233.855 409.274 233.622C408.985 233.389 408.615 233.273 408.166 233.273C407.718 233.273 407.348 233.389 407.058 233.622C406.769 233.855 406.554 234.161 406.415 234.538C406.276 234.916 406.206 235.324 406.206 235.761C406.206 236.199 406.276 236.605 406.415 236.98C406.554 237.355 406.769 237.658 407.058 237.888C407.348 238.118 407.718 238.233 408.166 238.233ZM418.222 239.136C417.608 239.136 417.08 238.991 416.636 238.702C416.193 238.412 415.852 238.013 415.614 237.504C415.375 236.996 415.256 236.415 415.256 235.761C415.256 235.097 415.378 234.51 415.622 234.001C415.869 233.49 416.213 233.091 416.653 232.804C417.097 232.514 417.614 232.369 418.205 232.369C418.665 232.369 419.08 232.455 419.449 232.625C419.818 232.795 420.121 233.034 420.357 233.341C420.592 233.648 420.739 234.006 420.795 234.415H419.79C419.713 234.116 419.543 233.852 419.278 233.622C419.017 233.389 418.665 233.273 418.222 233.273C417.83 233.273 417.486 233.375 417.19 233.58C416.898 233.781 416.669 234.067 416.504 234.436C416.342 234.803 416.261 235.233 416.261 235.727C416.261 236.233 416.341 236.673 416.5 237.048C416.662 237.423 416.889 237.714 417.182 237.922C417.477 238.129 417.824 238.233 418.222 238.233C418.483 238.233 418.72 238.188 418.933 238.097C419.146 238.006 419.327 237.875 419.474 237.705C419.622 237.534 419.727 237.33 419.79 237.091H420.795C420.739 237.477 420.598 237.825 420.374 238.135C420.152 238.442 419.858 238.686 419.491 238.868C419.128 239.047 418.705 239.136 418.222 239.136ZM424.685 239.136C424.094 239.136 423.575 238.996 423.129 238.714C422.686 238.433 422.34 238.04 422.09 237.534C421.842 237.028 421.719 236.437 421.719 235.761C421.719 235.08 421.842 234.484 422.09 233.976C422.34 233.467 422.686 233.072 423.129 232.791C423.575 232.51 424.094 232.369 424.685 232.369C425.276 232.369 425.793 232.51 426.236 232.791C426.682 233.072 427.028 233.467 427.276 233.976C427.526 234.484 427.651 235.08 427.651 235.761C427.651 236.437 427.526 237.028 427.276 237.534C427.028 238.04 426.682 238.433 426.236 238.714C425.793 238.996 425.276 239.136 424.685 239.136ZM424.685 238.233C425.134 238.233 425.503 238.118 425.793 237.888C426.082 237.658 426.297 237.355 426.436 236.98C426.575 236.605 426.645 236.199 426.645 235.761C426.645 235.324 426.575 234.916 426.436 234.538C426.297 234.161 426.082 233.855 425.793 233.622C425.503 233.389 425.134 233.273 424.685 233.273C424.236 233.273 423.867 233.389 423.577 233.622C423.287 233.855 423.072 234.161 422.933 234.538C422.794 234.916 422.724 235.324 422.724 235.761C422.724 236.199 422.794 236.605 422.933 236.98C423.072 237.355 423.287 237.658 423.577 237.888C423.867 238.118 424.236 238.233 424.685 238.233ZM429.951 235.062V239H428.946V232.455H429.917V233.477H430.003C430.156 233.145 430.389 232.878 430.701 232.676C431.014 232.472 431.417 232.369 431.912 232.369C432.355 232.369 432.743 232.46 433.075 232.642C433.407 232.821 433.666 233.094 433.851 233.46C434.035 233.824 434.128 234.284 434.128 234.841V239H433.122V234.909C433.122 234.395 432.988 233.994 432.721 233.707C432.454 233.418 432.088 233.273 431.622 233.273C431.301 233.273 431.014 233.342 430.761 233.482C430.511 233.621 430.314 233.824 430.169 234.091C430.024 234.358 429.951 234.682 429.951 235.062ZM438.572 232.455V233.307H435.18V232.455H438.572ZM436.168 230.886H437.174V237.125C437.174 237.409 437.215 237.622 437.298 237.764C437.383 237.903 437.491 237.997 437.622 238.045C437.755 238.091 437.896 238.114 438.043 238.114C438.154 238.114 438.245 238.108 438.316 238.097C438.387 238.082 438.444 238.071 438.487 238.062L438.691 238.966C438.623 238.991 438.528 239.017 438.406 239.043C438.284 239.071 438.129 239.085 437.941 239.085C437.657 239.085 437.379 239.024 437.106 238.902C436.836 238.78 436.612 238.594 436.433 238.344C436.257 238.094 436.168 237.778 436.168 237.398V230.886ZM441.771 239.153C441.356 239.153 440.98 239.075 440.642 238.919C440.303 238.76 440.035 238.531 439.836 238.233C439.637 237.932 439.538 237.568 439.538 237.142C439.538 236.767 439.612 236.463 439.759 236.23C439.907 235.994 440.105 235.81 440.352 235.676C440.599 235.543 440.872 235.443 441.17 235.378C441.471 235.31 441.774 235.256 442.078 235.216C442.475 235.165 442.798 235.126 443.045 235.101C443.295 235.072 443.477 235.026 443.59 234.96C443.707 234.895 443.765 234.781 443.765 234.619V234.585C443.765 234.165 443.65 233.838 443.42 233.605C443.193 233.372 442.848 233.256 442.384 233.256C441.904 233.256 441.528 233.361 441.255 233.571C440.982 233.781 440.791 234.006 440.68 234.244L439.725 233.903C439.896 233.506 440.123 233.196 440.407 232.974C440.694 232.75 441.007 232.594 441.345 232.506C441.686 232.415 442.021 232.369 442.35 232.369C442.561 232.369 442.802 232.395 443.075 232.446C443.35 232.494 443.616 232.595 443.872 232.749C444.13 232.902 444.345 233.134 444.515 233.443C444.686 233.753 444.771 234.168 444.771 234.688V239H443.765V238.114H443.714C443.646 238.256 443.532 238.408 443.373 238.57C443.214 238.732 443.002 238.869 442.738 238.983C442.474 239.097 442.151 239.153 441.771 239.153ZM441.924 238.25C442.322 238.25 442.657 238.172 442.93 238.016C443.205 237.859 443.413 237.658 443.552 237.411C443.694 237.163 443.765 236.903 443.765 236.631V235.71C443.723 235.761 443.629 235.808 443.484 235.851C443.342 235.891 443.177 235.926 442.99 235.957C442.805 235.986 442.625 236.011 442.448 236.034C442.275 236.054 442.134 236.071 442.026 236.085C441.765 236.119 441.521 236.175 441.294 236.251C441.069 236.325 440.887 236.437 440.748 236.588C440.612 236.736 440.544 236.937 440.544 237.193C440.544 237.543 440.673 237.807 440.931 237.986C441.193 238.162 441.524 238.25 441.924 238.25ZM446.366 239V232.455H447.372V239H446.366ZM446.878 231.364C446.682 231.364 446.513 231.297 446.371 231.163C446.231 231.03 446.162 230.869 446.162 230.682C446.162 230.494 446.231 230.334 446.371 230.2C446.513 230.067 446.682 230 446.878 230C447.074 230 447.241 230.067 447.381 230.2C447.523 230.334 447.594 230.494 447.594 230.682C447.594 230.869 447.523 231.03 447.381 231.163C447.241 231.297 447.074 231.364 446.878 231.364ZM449.98 235.062V239H448.974V232.455H449.946V233.477H450.031C450.184 233.145 450.417 232.878 450.73 232.676C451.042 232.472 451.446 232.369 451.94 232.369C452.383 232.369 452.771 232.46 453.103 232.642C453.436 232.821 453.694 233.094 453.879 233.46C454.064 233.824 454.156 234.284 454.156 234.841V239H453.15V234.909C453.15 234.395 453.017 233.994 452.75 233.707C452.483 233.418 452.116 233.273 451.65 233.273C451.329 233.273 451.042 233.342 450.789 233.482C450.539 233.621 450.342 233.824 450.197 234.091C450.052 234.358 449.98 234.682 449.98 235.062ZM458.498 239.136C457.867 239.136 457.323 238.997 456.866 238.719C456.411 238.438 456.06 238.045 455.813 237.543C455.569 237.037 455.447 236.449 455.447 235.778C455.447 235.108 455.569 234.517 455.813 234.006C456.06 233.491 456.404 233.091 456.844 232.804C457.288 232.514 457.805 232.369 458.396 232.369C458.737 232.369 459.073 232.426 459.406 232.54C459.738 232.653 460.041 232.838 460.313 233.094C460.586 233.347 460.803 233.682 460.965 234.099C461.127 234.517 461.208 235.031 461.208 235.642V236.068H456.163V235.199H460.185C460.185 234.83 460.112 234.5 459.964 234.21C459.819 233.92 459.612 233.692 459.342 233.524C459.075 233.357 458.759 233.273 458.396 233.273C457.995 233.273 457.648 233.372 457.356 233.571C457.066 233.767 456.843 234.023 456.687 234.338C456.531 234.653 456.452 234.991 456.452 235.352V235.932C456.452 236.426 456.538 236.845 456.708 237.189C456.881 237.53 457.121 237.79 457.428 237.969C457.735 238.145 458.092 238.233 458.498 238.233C458.762 238.233 459.001 238.196 459.214 238.122C459.43 238.045 459.616 237.932 459.772 237.781C459.928 237.628 460.049 237.437 460.134 237.21L461.106 237.483C461.004 237.812 460.832 238.102 460.59 238.352C460.349 238.599 460.05 238.793 459.695 238.932C459.34 239.068 458.941 239.136 458.498 239.136ZM462.498 239V232.455H463.47V233.443H463.538C463.657 233.119 463.873 232.857 464.185 232.655C464.498 232.453 464.85 232.352 465.242 232.352C465.316 232.352 465.408 232.354 465.519 232.357C465.63 232.359 465.714 232.364 465.771 232.369V233.392C465.737 233.384 465.658 233.371 465.536 233.354C465.417 233.334 465.291 233.324 465.157 233.324C464.839 233.324 464.555 233.391 464.305 233.524C464.058 233.655 463.862 233.837 463.717 234.07C463.575 234.3 463.504 234.562 463.504 234.858V239H462.498ZM472.943 229.864L470.131 240.312H469.21L472.023 229.864H472.943ZM487.222 230.273V239H486.199L481.444 232.148H481.358V239H480.302V230.273H481.324L486.097 237.142H486.182V230.273H487.222ZM491.619 239.136C491.028 239.136 490.51 238.996 490.064 238.714C489.621 238.433 489.274 238.04 489.024 237.534C488.777 237.028 488.653 236.437 488.653 235.761C488.653 235.08 488.777 234.484 489.024 233.976C489.274 233.467 489.621 233.072 490.064 232.791C490.51 232.51 491.028 232.369 491.619 232.369C492.21 232.369 492.727 232.51 493.171 232.791C493.617 233.072 493.963 233.467 494.21 233.976C494.46 234.484 494.585 235.08 494.585 235.761C494.585 236.437 494.46 237.028 494.21 237.534C493.963 238.04 493.617 238.433 493.171 238.714C492.727 238.996 492.21 239.136 491.619 239.136ZM491.619 238.233C492.068 238.233 492.438 238.118 492.727 237.888C493.017 237.658 493.232 237.355 493.371 236.98C493.51 236.605 493.58 236.199 493.58 235.761C493.58 235.324 493.51 234.916 493.371 234.538C493.232 234.161 493.017 233.855 492.727 233.622C492.438 233.389 492.068 233.273 491.619 233.273C491.171 233.273 490.801 233.389 490.511 233.622C490.222 233.855 490.007 234.161 489.868 234.538C489.729 234.916 489.659 235.324 489.659 235.761C489.659 236.199 489.729 236.605 489.868 236.98C490.007 237.355 490.222 237.658 490.511 237.888C490.801 238.118 491.171 238.233 491.619 238.233ZM503.652 233.92L502.748 234.176C502.692 234.026 502.608 233.879 502.497 233.737C502.389 233.592 502.241 233.473 502.054 233.379C501.866 233.286 501.626 233.239 501.334 233.239C500.933 233.239 500.599 233.331 500.332 233.516C500.068 233.697 499.936 233.929 499.936 234.21C499.936 234.46 500.027 234.658 500.209 234.803C500.39 234.947 500.675 235.068 501.061 235.165L502.033 235.403C502.618 235.545 503.054 235.763 503.341 236.055C503.628 236.345 503.771 236.719 503.771 237.176C503.771 237.551 503.663 237.886 503.447 238.182C503.234 238.477 502.936 238.71 502.552 238.881C502.169 239.051 501.723 239.136 501.214 239.136C500.547 239.136 499.994 238.991 499.557 238.702C499.119 238.412 498.842 237.989 498.726 237.432L499.68 237.193C499.771 237.545 499.943 237.81 500.196 237.986C500.452 238.162 500.785 238.25 501.197 238.25C501.666 238.25 502.038 238.151 502.314 237.952C502.592 237.75 502.731 237.509 502.731 237.227C502.731 237 502.652 236.81 502.493 236.656C502.334 236.5 502.089 236.384 501.76 236.307L500.669 236.051C500.069 235.909 499.629 235.689 499.348 235.391C499.069 235.089 498.93 234.713 498.93 234.261C498.93 233.892 499.034 233.565 499.241 233.281C499.452 232.997 499.737 232.774 500.098 232.612C500.461 232.45 500.873 232.369 501.334 232.369C501.981 232.369 502.49 232.511 502.859 232.795C503.231 233.08 503.496 233.455 503.652 233.92ZM506.051 235.062V239H505.045V230.273H506.051V233.477H506.136C506.289 233.139 506.519 232.871 506.826 232.672C507.136 232.47 507.548 232.369 508.062 232.369C508.508 232.369 508.899 232.459 509.234 232.638C509.569 232.814 509.829 233.085 510.014 233.452C510.201 233.815 510.295 234.278 510.295 234.841V239H509.289V234.909C509.289 234.389 509.154 233.987 508.884 233.703C508.617 233.416 508.247 233.273 507.772 233.273C507.443 233.273 507.147 233.342 506.886 233.482C506.627 233.621 506.423 233.824 506.272 234.091C506.125 234.358 506.051 234.682 506.051 235.062ZM513.821 239.153C513.406 239.153 513.03 239.075 512.692 238.919C512.354 238.76 512.085 238.531 511.886 238.233C511.687 237.932 511.588 237.568 511.588 237.142C511.588 236.767 511.662 236.463 511.81 236.23C511.957 235.994 512.155 235.81 512.402 235.676C512.649 235.543 512.922 235.443 513.22 235.378C513.521 235.31 513.824 235.256 514.128 235.216C514.526 235.165 514.848 235.126 515.095 235.101C515.345 235.072 515.527 235.026 515.641 234.96C515.757 234.895 515.815 234.781 515.815 234.619V234.585C515.815 234.165 515.7 233.838 515.47 233.605C515.243 233.372 514.898 233.256 514.435 233.256C513.954 233.256 513.578 233.361 513.305 233.571C513.033 233.781 512.841 234.006 512.73 234.244L511.776 233.903C511.946 233.506 512.173 233.196 512.457 232.974C512.744 232.75 513.057 232.594 513.395 232.506C513.736 232.415 514.071 232.369 514.401 232.369C514.611 232.369 514.852 232.395 515.125 232.446C515.401 232.494 515.666 232.595 515.922 232.749C516.18 232.902 516.395 233.134 516.565 233.443C516.736 233.753 516.821 234.168 516.821 234.688V239H515.815V238.114H515.764C515.696 238.256 515.582 238.408 515.423 238.57C515.264 238.732 515.052 238.869 514.788 238.983C514.524 239.097 514.202 239.153 513.821 239.153ZM513.974 238.25C514.372 238.25 514.707 238.172 514.98 238.016C515.256 237.859 515.463 237.658 515.602 237.411C515.744 237.163 515.815 236.903 515.815 236.631V235.71C515.773 235.761 515.679 235.808 515.534 235.851C515.392 235.891 515.227 235.926 515.04 235.957C514.855 235.986 514.675 236.011 514.499 236.034C514.325 236.054 514.185 236.071 514.077 236.085C513.815 236.119 513.571 236.175 513.344 236.251C513.119 236.325 512.937 236.437 512.798 236.588C512.662 236.736 512.594 236.937 512.594 237.193C512.594 237.543 512.723 237.807 512.981 237.986C513.243 238.162 513.574 238.25 513.974 238.25ZM520.888 239.136C520.343 239.136 519.861 238.999 519.444 238.723C519.026 238.445 518.699 238.053 518.463 237.547C518.228 237.038 518.11 236.438 518.11 235.744C518.11 235.057 518.228 234.46 518.463 233.955C518.699 233.449 519.027 233.058 519.448 232.783C519.868 232.507 520.354 232.369 520.905 232.369C521.331 232.369 521.668 232.44 521.915 232.582C522.165 232.722 522.355 232.881 522.486 233.06C522.62 233.236 522.723 233.381 522.797 233.494H522.882V230.273H523.888V239H522.917V237.994H522.797C522.723 238.114 522.618 238.264 522.482 238.446C522.346 238.625 522.151 238.786 521.898 238.928C521.645 239.067 521.309 239.136 520.888 239.136ZM521.025 238.233C521.428 238.233 521.769 238.128 522.047 237.918C522.326 237.705 522.537 237.411 522.682 237.036C522.827 236.658 522.9 236.222 522.9 235.727C522.9 235.239 522.828 234.811 522.686 234.445C522.544 234.075 522.334 233.788 522.056 233.584C521.777 233.376 521.434 233.273 521.025 233.273C520.598 233.273 520.243 233.382 519.959 233.601C519.678 233.817 519.466 234.111 519.324 234.483C519.185 234.852 519.115 235.267 519.115 235.727C519.115 236.193 519.186 236.616 519.328 236.997C519.473 237.375 519.686 237.676 519.968 237.901C520.252 238.122 520.604 238.233 521.025 238.233ZM528.289 239.136C527.698 239.136 527.179 238.996 526.733 238.714C526.29 238.433 525.944 238.04 525.694 237.534C525.446 237.028 525.323 236.437 525.323 235.761C525.323 235.08 525.446 234.484 525.694 233.976C525.944 233.467 526.29 233.072 526.733 232.791C527.179 232.51 527.698 232.369 528.289 232.369C528.88 232.369 529.397 232.51 529.84 232.791C530.286 233.072 530.633 233.467 530.88 233.976C531.13 234.484 531.255 235.08 531.255 235.761C531.255 236.437 531.13 237.028 530.88 237.534C530.633 238.04 530.286 238.433 529.84 238.714C529.397 238.996 528.88 239.136 528.289 239.136ZM528.289 238.233C528.738 238.233 529.107 238.118 529.397 237.888C529.687 237.658 529.901 237.355 530.04 236.98C530.179 236.605 530.249 236.199 530.249 235.761C530.249 235.324 530.179 234.916 530.04 234.538C529.901 234.161 529.687 233.855 529.397 233.622C529.107 233.389 528.738 233.273 528.289 233.273C527.84 233.273 527.471 233.389 527.181 233.622C526.891 233.855 526.677 234.161 526.537 234.538C526.398 234.916 526.329 235.324 526.329 235.761C526.329 236.199 526.398 236.605 526.537 236.98C526.677 237.355 526.891 237.658 527.181 237.888C527.471 238.118 527.84 238.233 528.289 238.233ZM533.81 239L531.816 232.455H532.873L534.287 237.466H534.356L535.753 232.455H536.827L538.208 237.449H538.276L539.691 232.455H540.748L538.753 239H537.765L536.333 233.972H536.231L534.799 239H533.81ZM546.474 233.92L545.57 234.176C545.513 234.026 545.43 233.879 545.319 233.737C545.211 233.592 545.063 233.473 544.876 233.379C544.688 233.286 544.448 233.239 544.155 233.239C543.755 233.239 543.421 233.331 543.154 233.516C542.89 233.697 542.758 233.929 542.758 234.21C542.758 234.46 542.849 234.658 543.03 234.803C543.212 234.947 543.496 235.068 543.883 235.165L544.854 235.403C545.439 235.545 545.876 235.763 546.162 236.055C546.449 236.345 546.593 236.719 546.593 237.176C546.593 237.551 546.485 237.886 546.269 238.182C546.056 238.477 545.758 238.71 545.374 238.881C544.991 239.051 544.545 239.136 544.036 239.136C543.368 239.136 542.816 238.991 542.378 238.702C541.941 238.412 541.664 237.989 541.547 237.432L542.502 237.193C542.593 237.545 542.765 237.81 543.018 237.986C543.273 238.162 543.607 238.25 544.019 238.25C544.488 238.25 544.86 238.151 545.135 237.952C545.414 237.75 545.553 237.509 545.553 237.227C545.553 237 545.474 236.81 545.314 236.656C545.155 236.5 544.911 236.384 544.581 236.307L543.491 236.051C542.891 235.909 542.451 235.689 542.17 235.391C541.891 235.089 541.752 234.713 541.752 234.261C541.752 233.892 541.856 233.565 542.063 233.281C542.273 232.997 542.559 232.774 542.92 232.612C543.283 232.45 543.695 232.369 544.155 232.369C544.803 232.369 545.312 232.511 545.681 232.795C546.053 233.08 546.317 233.455 546.474 233.92ZM551.002 241.455V232.455H551.973V233.494H552.093C552.166 233.381 552.269 233.236 552.399 233.06C552.533 232.881 552.723 232.722 552.97 232.582C553.22 232.44 553.559 232.369 553.985 232.369C554.536 232.369 555.022 232.507 555.442 232.783C555.862 233.058 556.191 233.449 556.426 233.955C556.662 234.46 556.78 235.057 556.78 235.744C556.78 236.438 556.662 237.038 556.426 237.547C556.191 238.053 555.864 238.445 555.446 238.723C555.029 238.999 554.547 239.136 554.002 239.136C553.581 239.136 553.245 239.067 552.992 238.928C552.739 238.786 552.544 238.625 552.408 238.446C552.272 238.264 552.166 238.114 552.093 237.994H552.007V241.455H551.002ZM551.99 235.727C551.99 236.222 552.063 236.658 552.208 237.036C552.353 237.411 552.564 237.705 552.843 237.918C553.121 238.128 553.462 238.233 553.865 238.233C554.286 238.233 554.637 238.122 554.918 237.901C555.202 237.676 555.415 237.375 555.557 236.997C555.702 236.616 555.774 236.193 555.774 235.727C555.774 235.267 555.703 234.852 555.561 234.483C555.422 234.111 555.21 233.817 554.926 233.601C554.645 233.382 554.291 233.273 553.865 233.273C553.456 233.273 553.112 233.376 552.834 233.584C552.556 233.788 552.345 234.075 552.203 234.445C552.061 234.811 551.99 235.239 551.99 235.727ZM559.08 230.273V239H558.074V230.273H559.08ZM565.318 233.92L564.415 234.176C564.358 234.026 564.274 233.879 564.163 233.737C564.055 233.592 563.908 233.473 563.72 233.379C563.533 233.286 563.293 233.239 563 233.239C562.599 233.239 562.266 233.331 561.999 233.516C561.734 233.697 561.602 233.929 561.602 234.21C561.602 234.46 561.693 234.658 561.875 234.803C562.057 234.947 562.341 235.068 562.727 235.165L563.699 235.403C564.284 235.545 564.72 235.763 565.007 236.055C565.294 236.345 565.438 236.719 565.438 237.176C565.438 237.551 565.33 237.886 565.114 238.182C564.901 238.477 564.602 238.71 564.219 238.881C563.835 239.051 563.389 239.136 562.881 239.136C562.213 239.136 561.661 238.991 561.223 238.702C560.786 238.412 560.509 237.989 560.392 237.432L561.347 237.193C561.438 237.545 561.609 237.81 561.862 237.986C562.118 238.162 562.452 238.25 562.864 238.25C563.332 238.25 563.705 238.151 563.98 237.952C564.259 237.75 564.398 237.509 564.398 237.227C564.398 237 564.318 236.81 564.159 236.656C564 236.5 563.756 236.384 563.426 236.307L562.335 236.051C561.736 235.909 561.296 235.689 561.014 235.391C560.736 235.089 560.597 234.713 560.597 234.261C560.597 233.892 560.7 233.565 560.908 233.281C561.118 232.997 561.403 232.774 561.764 232.612C562.128 232.45 562.54 232.369 563 232.369C563.648 232.369 564.156 232.511 564.526 232.795C564.898 233.08 565.162 233.455 565.318 233.92Z" fill="#6C737F"/>
</svg>
