<svg width="37" height="21" viewBox="0 0 37 21" fill="none" xmlns="http://www.w3.org/2000/svg">
<path d="M20.3506 8.31698C20.3506 2.74649 16.2971 0.318726 12.5132 0.318726H7.89927C4.1103 0.318726 0 2.46016 0 8.03065C0 13.6011 4.70124 15.8254 8.48512 15.8254H11.8765L16.9601 20.9948L20.3548 21L20.3506 8.31698C20.3506 8.34803 20.3506 8.28593 20.3506 8.31698ZM16.9533 16.398L13.5721 12.3756H8.48512C6.02471 12.3756 3.41847 11.1587 3.41847 8.03065C3.41847 4.90259 5.63555 3.73829 8.09682 3.73829H12.3233C14.7837 3.73829 16.9618 5.09922 16.9618 8.22729L16.9524 16.398H16.9533Z" fill="black"/>
<path d="M36.5435 20.947H27.999C25.4708 20.947 23.4207 18.8616 23.4207 16.2898V0.81604H26.8121V15.9776C26.8121 16.8349 27.4954 17.53 28.3382 17.53H36.5435V20.947Z" fill="black"/>
</svg>
