<svg width="32" height="32" viewBox="0 0 32 32" fill="none" xmlns="http://www.w3.org/2000/svg">
<path d="M12 17C12 17.3462 12.2308 17.6491 12.564 17.7414C18.4863 19.3756 19.6229 20.5136 21.2586 26.436C21.3509 26.7692 21.6538 27 22 27C22.3462 27 22.6491 26.7692 22.7414 26.436C24.377 20.5137 25.5136 19.3771 31.436 17.7414C31.7692 17.6491 32 17.3462 32 17C32 16.6538 31.7692 16.3509 31.436 16.2586C25.5137 14.623 24.3757 13.4849 22.7414 7.56395C22.6491 7.23076 22.3462 7 22 7C21.6538 7 21.3509 7.23078 21.2586 7.56395C19.6244 13.4848 18.4864 14.6229 12.564 16.2586C12.2308 16.3509 12 16.6538 12 17ZM22 10.3883C23.3096 14.1284 24.8717 15.6903 28.6132 17.0015C24.8731 18.3112 23.3097 19.8732 22 23.6147C20.6903 19.8746 19.1282 18.3127 15.3867 17.0015C19.1268 15.6918 20.6902 14.1297 22 10.3883Z" fill="#0B89D0"/>
<path d="M4.56065 7.23703C8.14258 8.22643 8.77478 8.85881 9.76297 12.4394C9.85474 12.7706 10.1573 13 10.5 13C10.8427 13 11.1467 12.7706 11.237 12.4394C12.225 8.85885 12.8574 8.22632 16.4394 7.23703C16.7706 7.14526 17 6.84414 17 6.5C17 6.15586 16.7706 5.85474 16.4394 5.76297C12.8574 4.77357 12.2252 4.14119 11.237 0.560648C11.1467 0.229413 10.8441 0 10.5 0C10.1559 0 9.85474 0.229428 9.76297 0.560648C8.77357 4.14258 8.14119 4.77368 4.56065 5.76297C4.22941 5.85474 4 6.15586 4 6.5C4 6.84414 4.22943 7.14526 4.56065 7.23703ZM10.5015 3.18626C11.2142 4.87973 12.1205 5.78595 13.8139 6.49861C12.119 7.21126 11.2128 8.11752 10.5015 9.81095C9.78888 8.11748 8.88263 7.21126 7.18919 6.49861C8.88266 5.78595 9.78888 4.87969 10.5015 3.18626Z" fill="#0B89D0"/>
<path d="M0.610917 25.3033C4.75609 26.4488 5.55289 27.2443 6.69688 31.389C6.79688 31.75 7.125 32 7.5 32C7.875 32 8.20312 31.7499 8.30312 31.389C9.44687 27.2429 10.2437 26.4471 14.3891 25.3033C14.75 25.2033 15 24.8751 15 24.5C15 24.1249 14.7484 23.7967 14.3891 23.6967C10.2439 22.5527 9.44711 21.7557 8.30312 17.611C8.20312 17.25 7.875 17 7.5 17C7.125 17 6.79688 17.2501 6.69688 17.611C5.55313 21.7555 4.75626 22.5529 0.610917 23.6967C0.249983 23.7967 0 24.1249 0 24.5C0 24.8751 0.249999 25.2033 0.610917 25.3033ZM7.50008 20.5023C8.34696 22.5762 9.42195 23.6529 11.4969 24.5C9.42351 25.3471 8.34852 26.4223 7.50008 28.4977C6.6532 26.4238 5.57665 25.3486 3.50322 24.5C5.57665 23.6529 6.6532 22.5777 7.50008 20.5023Z" fill="#0B89D0"/>
</svg>
